# xmcd CD database file
#
# Track frame offsets:
#	150
#	17512
#	37694
#	57918
#	80783
#	100334
#	118960
#	140910
#
# Disc length: 2166 seconds
#
# Revision: 1
# Processed by: cddbd v1.4PL0 Copyright (c) Steve Scherf et al.
# Submitted via: CDex 1.50
#
DISCID=6a087408
DTITLE=Butch Hancock - Firewater..seeks its own level
DYEAR=1981
DGENRE=Country
TTITLE0=no hiding place
TTITLE1=like the light at dawn
TTITLE2=firewater
TTITLE3=i keep wishing for you
TTITLE4=if you were a bluebird
TTITLE5=one road more
TTITLE6=man on a pilgrimage
TTITLE7=the wind's dominion
EXTD=YEAR: 1981
EXTT0=
EXTT1=
EXTT2=
EXTT3=
EXTT4=
EXTT5=
EXTT6=
EXTT7=
PLAYORDER=
